<?xml version="1.0" standalone="no"?> <!DOCTYPE svg PUBLIC "-//W3C//DTD SVG 20010904//EN" "http://www.w3.org/TR/2001/REC-SVG-20010904/DTD/svg10.dtd"> <svg version="1.0" xmlns="http://www.w3.org/2000/svg" width="344.000000pt" height="277.000000pt" viewBox="0 0 344.000000 277.000000" preserveAspectRatio="xMidYMid meet"> <metadata> Created by potrace 1.15, written by Peter Selinger 2001-2017 </metadata> <g transform="translate(0.000000,277.000000) scale(0.100000,-0.100000)" fill="#000000" stroke="none"> <path d="M868 2695 c-408 -67 -729 -352 -809 -720 -18 -81 -16 -263 4 -351 34 -157 113 -309 243 -473 42 -52 84 -111 94 -130 15 -31 210 -655 210 -674 0 -4 -16 -7 -36 -7 -52 0 -100 -26 -118 -65 -9 -18 -16 -38 -16 -44 0 -7 40 -11 124 -11 l123 0 212 -100 c116 -55 215 -100 221 -100 10 0 15 27 11 70 -4 41 -28 68 -89 99 l-57 30 148 1 c161 0 163 1 132 59 -26 52 -64 61 -254 61 l-171 0 -31 28 c-27 24 -41 59 -111 287 -48 154 -81 278 -81 305 -1 80 52 145 128 157 45 7 78 -14 106 -70 19 -35 159 -477 159 -499 0 -5 -23 -8 -51 -8 -45 0 -55 -4 -85 -34 -21 -21 -34 -44 -34 -60 l0 -26 129 0 129 0 208 -99 c115 -54 212 -97 217 -94 4 2 7 24 7 47 0 54 -25 88 -88 121 l-47 24 97 1 96 0 22 -34 c56 -91 197 -188 320 -221 72 -19 207 -19 283 1 191 49 352 210 402 401 19 74 19 213 0 287 -51 195 -206 350 -402 400 -76 20 -211 20 -283 1 -206 -55 -371 -229 -411 -433 -11 -61 -8 -211 7 -259 l6 -23 -131 0 c-135 0 -182 10 -210 44 -8 9 -64 182 -126 384 l-112 367 32 17 c53 28 172 57 279 68 104 11 151 9 436 -17 243 -22 419 -15 523 21 86 29 156 70 230 134 85 74 125 70 270 -28 242 -163 418 -359 536 -597 27 -54 52 -108 56 -120 9 -31 28 -29 59 8 58 69 16 205 -125 404 -117 165 -388 419 -587 550 -43 28 -43 29 -37 75 9 66 -9 152 -50 239 -66 138 -214 256 -364 291 -66 16 -198 8 -263 -15 l-48 -17 -51 46 c-101 91 -268 190 -409 243 -163 62 -402 86 -572 58z m1393 -587 c68 -38 98 -110 77 -183 -9 -31 -13 -35 -16 -18 -5 31 -49 72 -87 79 -34 6 -81 -12 -104 -39 -21 -26 -24 -81 -7 -114 15 -30 15 -31 -5 -26 -35 9 -86 66 -99 110 -43 143 110 265 241 191z"/> </g> </svg>