<svg width="24" height="24" viewBox="0 0 24 24" xmlns="http://www.w3.org/2000/svg"><title>icon / downloading</title><g fill="none" fill-rule="evenodd"><g fill-rule="nonzero"><path d="M2 12c0 5.523 4.477 10 10 10s10-4.477 10-10S17.523 2 12 2 2 6.477 2 12zm-2 0C0 5.373 5.373 0 12 0s12 5.373 12 12-5.373 12-12 12S0 18.627 0 12z" fill="#E5E5EA"/><path d="M12 0c6.627 0 12 5.373 12 12s-5.373 12-12 12S0 18.627 0 12h2c0 5.523 4.477 10 10 10s10-4.477 10-10S17.523 2 12 2V0z" fill="#36C"/></g><g transform="translate(9 7)" fill="#36C"><rect x="4" width="2" height="10" rx="1"/><rect width="2" height="10" rx="1"/></g></g></svg>