<svg width="24" height="24" viewBox="0 0 24 24" xmlns="http://www.w3.org/2000/svg"><title>icon / full-screen-exit</title><g fill="#000" fill-rule="evenodd"><path d="M8.854 9.854A.498.498 0 0 1 8.5 10h-6a.5.5 0 0 1 0-1H8V4.5a.5.5 0 0 1 1 0v5a.498.498 0 0 1-.146.354zM15.146 9.854c.09.09.216.146.354.146h6a.5.5 0 1 0 0-1H16V4.5a.5.5 0 1 0-1 0v5c0 .138.056.263.146.354zM8.854 14.146A.498.498 0 0 0 8.5 14h-6a.5.5 0 1 0 0 1H8v4.5a.5.5 0 1 0 1 0v-5a.498.498 0 0 0-.146-.354zM15.146 14.146A.498.498 0 0 1 15.5 14h6a.5.5 0 1 1 0 1H16v4.5a.5.5 0 1 1-1 0v-5c0-.138.056-.263.146-.354z"/></g></svg>