<svg width="24" height="24" viewBox="0 0 24 24" xmlns="http://www.w3.org/2000/svg"><title>icon / full-screen-enter</title><g fill="#000" fill-rule="evenodd"><path d="M2.146 4.146A.498.498 0 0 1 2.5 4h6a.5.5 0 0 1 0 1H3v4.5a.5.5 0 0 1-1 0v-5c0-.138.056-.263.146-.354zM21.854 4.146A.498.498 0 0 0 21.5 4h-6a.5.5 0 1 0 0 1H21v4.5a.5.5 0 1 0 1 0v-5a.498.498 0 0 0-.146-.354zM2.146 19.854c.09.09.216.146.354.146h6a.5.5 0 1 0 0-1H3v-4.5a.5.5 0 1 0-1 0v5c0 .138.056.263.146.354zM21.854 19.854A.498.498 0 0 1 21.5 20h-6a.5.5 0 1 1 0-1H21v-4.5a.5.5 0 1 1 1 0v5a.498.498 0 0 1-.146.354z"/></g></svg>