<?xml version="1.0" standalone="no"?>
<!DOCTYPE svg PUBLIC "-//W3C//DTD SVG 20010904//EN"
 "http://www.w3.org/TR/2001/REC-SVG-20010904/DTD/svg10.dtd">
<svg version="1.0" xmlns="http://www.w3.org/2000/svg"
 width="256.000000pt" height="256.000000pt" viewBox="0 0 256.000000 256.000000"
 preserveAspectRatio="xMidYMid meet">

<g transform="translate(0.000000,256.000000) scale(0.100000,-0.100000)"
fill="#000000" stroke="none">
<path d="M790 1789 c-252 -248 -461 -457 -464 -466 -11 -28 -6 -59 14 -80 28
-31 56 -37 90 -19 l30 14 0 -429 0 -430 25 -24 24 -25 774 0 774 0 21 23 c22
23 22 28 24 448 3 371 5 424 18 420 54 -14 70 -12 94 12 55 55 66 42 -437 544
-421 422 -466 463 -495 463 -30 0 -76 -42 -492 -451z m824 -70 l326 -321 0
-459 0 -459 -140 0 -140 0 0 382 c0 378 0 382 -22 405 l-21 23 -352 0 -352 0
-24 -26 -24 -26 -3 -379 -3 -379 -119 0 -120 0 0 459 0 459 325 321 c179 176
330 321 334 321 5 0 155 -144 335 -321z m-114 -914 l0 -325 -240 0 -240 0 0
325 0 325 240 0 240 0 0 -325z"/>
</g>
</svg>
