<svg xmlns="http://www.w3.org/2000/svg" width="24" height="24"><g fill="none" fill-rule="evenodd"><rect width="24" height="24" fill="#FFF" rx="2"/><g fill-rule="nonzero"><path fill="#000" d="M19.258 15.521c0 1.621-1.35 2.936-3.017 2.936-1.666 0-3.017-1.315-3.017-2.936s1.35-2.935 3.017-2.935c1.667 0 3.017 1.314 3.017 2.935z"/><path fill="#000" d="M8.289 5.015c-4.272.06-7.527 4.584-3.354 8.692l1.112 2.82c.185.644-.442 2.062-.164 2.458.32-.608.4-1.477.822-1.578.743.506 1.841.677 2.462 1.328.232-.631-.709-.954-1.497-1.315.737.118 1.246-.266 1.792.352.08-.313-.021-.552-.234-.746l-.333-.438c.616.315 2.149.313 2.501.865.136-1.045-1.153-.688-1.761-1 .394.047.787-.142 1.177-.09-.105-.293-.284-.42-.55-.398-2.093.48-2.24-2.924-2.211-3.89 2.81-1.147 5.646.912 7.906-1.065.74-1.064 3.794 1.716 4.735 4.07 1.406-.573-2.605-4.312-3.77-5.324.609-1.557-1.762-3.823-3.903-2.823-1.507-1.378-3.185-1.94-4.73-1.918zm-1.134 8.413c.205-.004.37.103.403.324l.454 2.09c-.245.068-.351.304-.303.73.104-.118.146-.32.385-.255l.563.697c-1.914.144-2.061-.897-2.393-2.619.1-.639.55-.96.891-.967z"/><path fill="#FFF" d="M15.376 8.896a.872.872 0 0 1-.863.881.872.872 0 0 1-.862-.881c0-.487.386-.881.862-.881.477 0 .863.394.863.88z"/><path fill="#000" d="M15.277 9.337a.557.557 0 0 1-.552.563.557.557 0 0 1-.55-.563c0-.311.246-.564.55-.564.305 0 .552.253.552.564z"/></g></g></svg>