<svg width="24" height="24" viewBox="0 0 24 24" xmlns="http://www.w3.org/2000/svg"><title>icon / print</title><g fill="none" fill-rule="evenodd"><path d="M8 4.5A1.5 1.5 0 0 0 6.5 6v12A1.5 1.5 0 0 0 8 19.5h8a1.5 1.5 0 0 0 1.5-1.5V7.828a1.5 1.5 0 0 0-.44-1.06l-1.828-1.829a1.5 1.5 0 0 0-1.06-.439H8z" stroke="#000" fill="#FFF"/><path d="M3.5 16.5h17V13a1.5 1.5 0 0 0-1.5-1.5H5A1.5 1.5 0 0 0 3.5 13v3.5z" stroke="#000" fill="#000"/><path fill="#FFF" d="M7 11h10v1H7zM7 16h10v1H7z"/><path d="M18 8h-3a1 1 0 0 1-1-1V4l4 4z" fill="#000"/></g></svg>