<svg width="24" height="24" viewBox="0 0 24 24"
	xmlns="http://www.w3.org/2000/svg">
	<title>icon / random</title>
	<g fill="none" fill-rule="evenodd">
		<path d="M8.824 9.386l-.957 1.207L5.61 7.75H3a.75.75 0 0 1 0-1.5h2.973a.75.75 0 0 1 .587.284l2.264 2.852zm3.192 4.021l2.256 2.843H18a.75.75 0 1 1 0 1.5h-4.09a.75.75 0 0 1-.587-.284l-2.264-2.852.957-1.207z" fill="#444444" fill-rule="nonzero"/>
		<path stroke="#444444" stroke-width="1.3" stroke-linecap="round" stroke-linejoin="round" d="M3 17h2.973L13.91 7H18"/>
		<path fill="#444444" d="M22 17l-5 3v-6zM22 7l-5 3V4z"/>
	</g>
</svg>