<svg width="24" height="24" viewBox="0 0 24 24" xmlns="http://www.w3.org/2000/svg"><title>icon / settings</title><path d="M10.193 20a8.152 8.152 0 0 1-2.572-1.066l.204-2.76-2.759.205A8.152 8.152 0 0 1 4 13.807L6.096 12 4 10.193A8.152 8.152 0 0 1 5.066 7.62l2.76.204-.205-2.759A8.152 8.152 0 0 1 10.193 4L12 6.096 13.807 4a8.152 8.152 0 0 1 2.572 1.066l-.204 2.76 2.759-.205A8.152 8.152 0 0 1 20 10.193L17.904 12 20 13.807a8.152 8.152 0 0 1-1.066 2.572l-2.76-.204.205 2.759A8.152 8.152 0 0 1 13.807 20L12 17.904 10.193 20zM12 15.075a3.075 3.075 0 1 0 0-6.15 3.075 3.075 0 0 0 0 6.15z" stroke="#000" fill="#FFF" fill-rule="evenodd"/></svg>