<?xml version="1.0" encoding="UTF-8"?>
<svg width="24" height="24" version="1.1" viewBox="0 0 24 24" xmlns="http://www.w3.org/2000/svg">
 <path d="M21.5 14.98c-.02 0-.03 0-.05.01C21.2 18.65 17.74 21.6 13.6 21.6c-2.5 0-4.83-1.05-6.52-2.95l2.27-2.27c.24-.24.34-.58.27-.91-.07-.32-.29-.59-.58-.71L2.7 11.63c-.39-.15-.82-.07-1.12.22-.3.29-.38.72-.24 1.1l2.13 6.34c.12.29.39.51.71.58.33.07.67-.03.91-.27l2.08-2.08c2.12 2.34 5.05 3.61 8.13 3.61 5.29 0 9.72-3.73 10.19-8.41.03-.31-.11-.62-.37-.82-.21-.15-.46-.21-.71-.17M21.3 5.86l-2.13-6.34c-.12-.29-.39-.51-.71-.58-.33-.07-.67.03-.91.27L15.47 1.3c-2.12-2.34-5.05-3.61-8.13-3.61-5.29 0-9.72 3.73-10.19 8.41-.03.31.11.62.37.82.26.2.6.26.91.17h.05C-1.2 2.65 2.26-.3 6.4-.3c2.5 0 4.83 1.05 6.52 2.95L10.65 4.92c-.24.24-.34.58-.27.91.07.32.29.59.58.71l6.34 2.13c.39.15.82.07 1.12-.22.3-.29.38-.72.24-1.1" transform="translate(0,2)"/>
</svg>
